<svg width="22" height="22" viewBox="0 0 22 22" fill="none" xmlns="http://www.w3.org/2000/svg">
<path d="M11 5.5C11.3797 5.5 11.6875 5.8078 11.6875 6.1875V10.3125H15.8125C16.1922 10.3125 16.5 10.6203 16.5 11C16.5 11.3797 16.1922 11.6875 15.8125 11.6875H11.6875V15.8125C11.6875 16.1922 11.3797 16.5 11 16.5C10.6203 16.5 10.3125 16.1922 10.3125 15.8125V11.6875H6.1875C5.8078 11.6875 5.5 11.3797 5.5 11C5.5 10.6203 5.8078 10.3125 6.1875 10.3125H10.3125V6.1875C10.3125 5.8078 10.6203 5.5 11 5.5Z" fill="#9A9A9A"/>
<path fill-rule="evenodd" clip-rule="evenodd" d="M11 1.375C5.68426 1.375 1.375 5.68426 1.375 11C1.375 16.3157 5.68426 20.625 11 20.625C16.3157 20.625 20.625 16.3157 20.625 11C20.625 5.68426 16.3157 1.375 11 1.375ZM2.75 11C2.75 6.44365 6.44365 2.75 11 2.75C15.5563 2.75 19.25 6.44365 19.25 11C19.25 15.5563 15.5563 19.25 11 19.25C6.44365 19.25 2.75 15.5563 2.75 11Z" fill="#9A9A9A"/>
</svg>
