<svg width="26" height="14" viewBox="0 0 26 14" fill="none" xmlns="http://www.w3.org/2000/svg">
<path d="M8.71256e-05 6.99403C2.79981e-05 6.99754 -6.11867e-07 7.00106 -6.11558e-07 7.00459C3.94603e-05 7.20501 0.0959429 7.38397 0.246183 7.50172L6.83537 13.8119C7.09727 14.0627 7.52189 14.0627 7.78378 13.8119C8.04568 13.5611 8.04568 13.1545 7.78378 12.9036L2.29408 7.6464L25.3295 7.64216C25.6999 7.6421 26.0001 7.3545 26 6.99981C25.9999 6.64511 25.6996 6.35763 25.3292 6.3577L2.28538 6.36194L7.78378 1.09636C8.04568 0.845552 8.04568 0.438914 7.78378 0.188106C7.52189 -0.0627006 7.09727 -0.0627005 6.83537 0.188106L0.196481 6.54588C0.067119 6.66976 0.00165495 6.83166 8.71256e-05 6.99403Z" fill="#1B1B1B"/>
</svg>
