<svg width="18" height="18" viewBox="0 0 18 18" fill="none" xmlns="http://www.w3.org/2000/svg">
<path d="M9 10.25C9.34518 10.25 9.625 10.5299 9.625 10.875V13.375C9.625 13.7202 9.34518 14 9 14C8.65482 14 8.375 13.7202 8.375 13.375V10.875C8.375 10.5299 8.65482 10.25 9 10.25Z" fill="#1B1B1B"/>
<path d="M12.75 10.875C12.75 10.5299 12.4702 10.25 12.125 10.25C11.7798 10.25 11.5 10.5299 11.5 10.875V13.375C11.5 13.7202 11.7798 14 12.125 14C12.4702 14 12.75 13.7202 12.75 13.375V10.875Z" fill="#1B1B1B"/>
<path d="M5.875 10.25C6.22018 10.25 6.5 10.5299 6.5 10.875V13.375C6.5 13.7202 6.22018 14 5.875 14C5.52982 14 5.25 13.7202 5.25 13.375V10.875C5.25 10.5299 5.52982 10.25 5.875 10.25Z" fill="#1B1B1B"/>
<path fill-rule="evenodd" clip-rule="evenodd" d="M12.0825 5.87504L10.2898 1.0945C10.1686 0.7713 10.3324 0.411042 10.6556 0.289842C10.9788 0.168642 11.339 0.332395 11.4602 0.655595L13.3352 5.6556C13.3623 5.72792 13.3752 5.8021 13.3752 5.87504H15.8657C15.8714 5.87497 15.877 5.87497 15.8827 5.87504H17.125C17.4702 5.87504 17.75 6.15487 17.75 6.50004C17.75 6.84522 17.4702 7.12504 17.125 7.12504H16.4408L15.6634 14.9346C15.5043 16.5327 14.1598 17.75 12.5538 17.75L5.44614 17.75C3.84013 17.75 2.49559 16.5327 2.3365 14.9346L1.55908 7.12504H0.875C0.529822 7.12504 0.25 6.84522 0.25 6.50004C0.25 6.15487 0.529822 5.87504 0.875 5.87504H4.62483C4.62483 5.80211 4.63768 5.72793 4.6648 5.65561L6.53978 0.655612C6.66098 0.332412 7.02124 0.168658 7.34444 0.289857C7.66764 0.411056 7.83139 0.771313 7.71019 1.09451L5.91751 5.87504H12.0825ZM3.58036 14.8108L2.81526 7.12504H15.1846L14.4196 14.8108C14.3241 15.7696 13.5174 16.5 12.5538 16.5H5.44614C4.48253 16.5 3.67581 15.7696 3.58036 14.8108Z" fill="#1B1B1B"/>
</svg>
