<svg width="20" height="20" viewBox="0 0 20 20" fill="none" xmlns="http://www.w3.org/2000/svg">
<path fill-rule="evenodd" clip-rule="evenodd" d="M3.75 10C3.75 6.54822 6.54822 3.75 10 3.75C13.4518 3.75 16.25 6.54822 16.25 10C16.25 12.8823 15.1236 13.6806 14.6968 13.7873C14.4726 13.8434 14.2803 13.7904 14.1259 13.6489C13.9652 13.5015 13.75 13.1608 13.75 12.5V7.5C13.75 6.80964 13.1904 6.25 12.5 6.25C12.1552 6.25 11.8429 6.38964 11.6168 6.61547C11.1272 6.38119 10.5789 6.25 10 6.25C7.92893 6.25 6.25 7.92893 6.25 10C6.25 12.0711 7.92893 13.75 10 13.75C10.4757 13.75 10.9307 13.6614 11.3494 13.4999C11.5142 14.2944 11.8818 14.9832 12.4366 15.4918C13.2197 16.2096 14.2774 16.4691 15.3032 16.2127C17.3764 15.6944 18.75 13.3677 18.75 10C18.75 5.16751 14.8325 1.25 10 1.25C5.16751 1.25 1.25 5.16751 1.25 10C1.25 14.8325 5.16751 18.75 10 18.75C10.6904 18.75 11.25 18.1904 11.25 17.5C11.25 16.8096 10.6904 16.25 10 16.25C6.54822 16.25 3.75 13.4518 3.75 10ZM11.25 10C11.25 9.30964 10.6904 8.75 10 8.75C9.30964 8.75 8.75 9.30964 8.75 10C8.75 10.6904 9.30964 11.25 10 11.25C10.6904 11.25 11.25 10.6904 11.25 10Z" fill="#9A9A9A"/>
</svg>
