<svg width="119" height="21" viewBox="0 0 119 21" fill="none" xmlns="http://www.w3.org/2000/svg">
<path fill-rule="evenodd" clip-rule="evenodd" d="M115.361 12.4884C115.219 11.6303 115.174 10.9364 114.983 10.2855C114.396 8.29328 113.038 7.17164 110.975 6.90243C109.025 6.64843 107.141 7.52263 106.206 9.16113C105.369 10.6262 105.283 12.2106 105.617 13.8199C106.047 15.8916 107.607 17.3011 109.637 17.5255C111.941 17.7801 113.833 16.8708 114.675 14.9682C115.037 14.1496 115.164 13.2265 115.361 12.4884ZM101.756 13.1784C101.733 6.97322 105.517 3.74438 110.605 3.8625C112.623 3.9092 114.517 4.41043 116.104 5.71422C118.662 7.81592 119.328 10.631 118.862 13.7506C118.253 17.8361 115.226 20.3993 110.924 20.6015C109.173 20.6837 107.476 20.4151 105.915 19.5876C102.976 18.0299 101.787 15.4576 101.756 13.1784Z" fill="#1B1B1B"/>
<path fill-rule="evenodd" clip-rule="evenodd" d="M23.332 4.22285C23.9079 4.22285 24.437 4.192 24.9593 4.23891C25.1533 4.25645 25.3642 4.42465 25.5111 4.57827C28.3828 7.57952 31.2473 10.588 34.1089 13.5989C34.2526 13.7502 34.3563 13.9391 34.4789 14.1105C34.5393 14.0771 34.5996 14.0435 34.66 14.0099V4.26046H38.012V20.165C37.1021 20.1722 36.2793 20.36 35.4949 19.4979C32.7952 16.5298 29.9913 13.6566 27.2322 10.7424C27.0908 10.593 26.9962 10.3993 26.8797 10.2264C26.817 10.2663 26.7544 10.3059 26.6917 10.3456V20.157H23.332V4.22285Z" fill="#1B1B1B"/>
<path fill-rule="evenodd" clip-rule="evenodd" d="M89.9769 12.3522C91.0512 12.3522 92.0742 12.4253 93.079 12.3216C93.5866 12.269 94.1256 11.9784 94.5387 11.6534C95.8767 10.6011 95.8115 8.34345 94.4263 7.44263C93.0359 6.53779 91.4956 6.89047 89.9769 6.91836V12.3522ZM95.6585 14.3282C96.8978 16.2902 98.0966 18.1876 99.3644 20.1944C98.4131 20.1944 97.57 20.1202 96.7457 20.2132C95.7233 20.3288 95.1137 19.989 94.6349 19.0569C94.0018 17.8239 93.1891 16.6839 92.4748 15.491C92.2982 15.1965 92.0996 15.0786 91.7558 15.0955C91.1804 15.1238 90.6024 15.1033 89.9786 15.1033V20.1471H86.5913V4.25204C86.8576 4.22436 87.1316 4.17026 87.4053 4.17153C89.5845 4.18167 91.7653 4.16329 93.9424 4.24274C94.6093 4.26704 95.2901 4.50752 95.9228 4.75517C97.8445 5.50702 98.8429 6.9638 98.9103 9.01246C98.9826 11.205 98.1893 12.9657 96.187 14.055C96.0344 14.1378 95.8784 14.2145 95.6585 14.3282Z" fill="#1B1B1B"/>
<mask id="mask0" mask-type="alpha" maskUnits="userSpaceOnUse" x="0" y="0" width="12" height="21">
<path d="M0 0.211792H11.8554V20.1652H0V0.211792Z" fill="white"/>
</mask>
<g mask="url(#mask0)">
<path fill-rule="evenodd" clip-rule="evenodd" d="M3.49108 20.1652H0.0416368C0.0304373 19.9524 0.0116306 19.7652 0.0116306 19.5784C0.00994009 13.328 0.0156455 7.07763 8.45996e-06 0.827256C-0.00125941 0.338071 0.139685 0.209171 0.622531 0.211706C4.1789 0.231358 7.73548 0.222483 11.2921 0.222483H11.8554V3.42004H11.2337C8.83916 3.42004 6.44458 3.42976 4.05021 3.41117C3.61364 3.40779 3.47418 3.53627 3.48073 3.97706C3.50376 5.56126 3.50144 7.14631 3.48178 8.73051C3.47671 9.14235 3.60054 9.27674 4.01957 9.27294C6.11472 9.25456 8.20987 9.27315 10.305 9.25752C10.7029 9.25435 10.8758 9.34627 10.8544 9.78284C10.8202 10.4854 10.8255 11.1916 10.8527 11.8949C10.8682 12.2892 10.7365 12.4101 10.3428 12.4069C8.28298 12.3904 6.22291 12.3993 4.16305 12.3995H3.49108V20.1652Z" fill="#1B1B1B"/>
</g>
<path fill-rule="evenodd" clip-rule="evenodd" d="M42.6748 20.1499V4.25781H53.2934V6.96344H46.0302V10.7465H52.8247V13.3558H46.0376V17.5241H53.5831V20.1499H42.6748Z" fill="#1B1B1B"/>
<mask id="mask1" mask-type="alpha" maskUnits="userSpaceOnUse" x="56" y="3" width="12" height="18">
<path d="M56.4268 3.82629H67.281V20.6344H56.4268V3.82629Z" fill="white"/>
</mask>
<g mask="url(#mask1)">
<path fill-rule="evenodd" clip-rule="evenodd" d="M56.4396 16.5513C57.7294 17.3821 58.9927 17.9013 60.3871 18.0078C61.0122 18.0556 61.6516 18.0399 62.2743 17.9668C63.0484 17.876 63.6468 17.4624 63.83 16.6673C64.0257 15.8163 63.9373 14.9776 63.1646 14.4301C62.6105 14.0377 61.9806 13.7469 61.3682 13.4437C60.55 13.0386 59.6841 12.7208 58.8952 12.2673C57.2502 11.3215 56.4392 9.89622 56.6518 7.96294C56.8584 6.0848 57.9782 4.92407 59.6836 4.33641C61.909 3.56978 64.1518 3.71241 66.3624 4.46299C66.5094 4.51265 66.7085 4.70177 66.7131 4.83194C66.7444 5.70592 66.7294 6.58138 66.7294 7.49911C66.1401 7.2954 65.6232 7.07902 65.0862 6.93892C63.9187 6.63379 62.7346 6.5144 61.5352 6.7648C60.684 6.94209 60.1576 7.39895 60.0499 8.06521C59.918 8.88087 60.165 9.45733 60.9936 9.88354C61.9297 10.3655 62.9197 10.741 63.8767 11.1831C65.1308 11.7625 66.2518 12.5051 66.8279 13.837C68.1378 16.8661 66.5134 19.8657 63.169 20.459C61.0532 20.8345 58.9629 20.6025 56.9465 19.8063C56.5628 19.655 56.4077 19.4555 56.4286 19.0289C56.4671 18.2443 56.4396 17.4561 56.4396 16.5513Z" fill="#1B1B1B"/>
</g>
<path fill-rule="evenodd" clip-rule="evenodd" d="M83.6296 7.4882H78.3003V20.1582H74.7655V7.51166C74.524 7.49982 74.3384 7.48292 74.1529 7.48271C72.6568 7.48038 71.1605 7.47193 69.6647 7.48799C69.3063 7.49201 69.1617 7.39586 69.1708 7.01613C69.1926 6.10602 69.1778 5.19484 69.1778 4.25366H83.6296V7.4882Z" fill="#1B1B1B"/>
<path fill-rule="evenodd" clip-rule="evenodd" d="M15.1602 20.158H18.6155V4.2467H15.1602V20.158Z" fill="#1B1B1B"/>
<path fill-rule="evenodd" clip-rule="evenodd" d="M110.385 14.8148C110.385 13.8896 108.836 12.3409 107.911 12.3409C108.836 12.3409 110.385 10.7922 110.385 9.86694C110.385 10.7922 111.933 12.3409 112.859 12.3409C111.933 12.3409 110.385 13.8896 110.385 14.8148Z" fill="#611F25"/>
</svg>
