<svg width="119" height="21" viewBox="0 0 119 21" fill="none" xmlns="http://www.w3.org/2000/svg">
<path fill-rule="evenodd" clip-rule="evenodd" d="M115.361 12.2766C115.219 11.4185 115.174 10.7246 114.983 10.0737C114.396 8.08149 113.038 6.95985 110.975 6.69063C109.025 6.43664 107.141 7.31083 106.205 8.94934C105.369 10.4144 105.283 11.9988 105.617 13.6081C106.047 15.6798 107.607 17.0893 109.637 17.3137C111.94 17.5683 113.833 16.659 114.675 14.7564C115.037 13.9378 115.164 13.0148 115.361 12.2766ZM101.756 12.9666C101.733 6.76142 105.517 3.53259 110.605 3.65071C112.623 3.69741 114.517 4.19864 116.104 5.50243C118.662 7.60413 119.328 10.4192 118.862 13.5388C118.253 17.6243 115.225 20.1875 110.924 20.3897C109.173 20.4719 107.476 20.2034 105.915 19.3759C102.976 17.8181 101.787 15.2458 101.756 12.9666Z" fill="white"/>
<path fill-rule="evenodd" clip-rule="evenodd" d="M23.3318 4.01106C23.9077 4.01106 24.4368 3.9802 24.9592 4.02711C25.1531 4.04465 25.364 4.21286 25.5109 4.36648C28.3826 7.36773 31.2471 10.3762 34.1087 13.3871C34.2524 13.5384 34.3562 13.7274 34.4787 13.8987C34.5392 13.8653 34.5994 13.8317 34.6598 13.7981V4.04867H38.0118V19.9532C37.1019 19.9604 36.2791 20.1483 35.4947 19.2861C32.795 16.318 29.9911 13.4448 27.232 10.5306C27.0907 10.3812 26.996 10.1875 26.8796 10.0146C26.8168 10.0546 26.7542 10.0941 26.6915 10.1338V19.9452H23.3318V4.01106Z" fill="white"/>
<path fill-rule="evenodd" clip-rule="evenodd" d="M89.9768 12.1404C91.0511 12.1404 92.0741 12.2136 93.0789 12.1098C93.5864 12.0572 94.1255 11.7666 94.5386 11.4416C95.8766 10.3893 95.8113 8.13166 94.4262 7.23084C93.0358 6.326 91.4955 6.67868 89.9768 6.70657V12.1404ZM95.6583 14.1164C96.8977 16.0784 98.0965 17.9758 99.3643 19.9826C98.413 19.9826 97.5699 19.9085 96.7455 20.0014C95.7232 20.117 95.1136 19.7772 94.6348 18.8451C94.0017 17.6121 93.189 16.4721 92.4747 15.2793C92.2981 14.9847 92.0994 14.8668 91.7556 14.8837C91.1802 14.912 90.6023 14.8915 89.9785 14.8915V19.9353H86.5912V4.04025C86.8574 4.01257 87.1315 3.95847 87.4052 3.95974C89.5844 3.96988 91.7651 3.9515 93.9423 4.03095C94.6092 4.05525 95.29 4.29572 95.9227 4.54338C97.8444 5.29523 98.8428 6.752 98.9102 8.80067C98.9825 10.9932 98.1892 12.7539 96.1868 13.8432C96.0343 13.926 95.8783 14.0027 95.6583 14.1164Z" fill="white"/>
<mask id="mask0" mask-type="alpha" maskUnits="userSpaceOnUse" x="0" y="0" width="12" height="20">
<path d="M0 0H11.8554V19.9534H0V0Z" fill="white"/>
</mask>
<g mask="url(#mask0)">
<path fill-rule="evenodd" clip-rule="evenodd" d="M3.49108 19.9534H0.0416368C0.0304373 19.7406 0.0116306 19.5534 0.0116306 19.3666C0.00994009 13.1162 0.0156455 6.86584 8.45996e-06 0.615464C-0.00125941 0.126279 0.139685 -0.00262132 0.622531 -8.55825e-05C4.1789 0.0195664 7.73548 0.0106913 11.2921 0.0106913H11.8554V3.20825H11.2337C8.83916 3.20825 6.44458 3.21797 4.05021 3.19938C3.61364 3.196 3.47418 3.32447 3.48073 3.76527C3.50376 5.34947 3.50144 6.93451 3.48178 8.51871C3.47671 8.93056 3.60054 9.06495 4.01957 9.06115C6.11472 9.04277 8.20987 9.06136 10.305 9.04572C10.7029 9.04255 10.8758 9.13447 10.8544 9.57104C10.8202 10.2737 10.8255 10.9799 10.8527 11.6831C10.8682 12.0774 10.7365 12.1983 10.3428 12.1951C8.28298 12.1786 6.22291 12.1875 4.16305 12.1877H3.49108V19.9534Z" fill="white"/>
</g>
<path fill-rule="evenodd" clip-rule="evenodd" d="M42.6747 19.9381V4.04602H53.2933V6.75165H46.0301V10.5348H52.8246V13.144H46.0375V17.3123H53.583V19.9381H42.6747Z" fill="white"/>
<mask id="mask1" mask-type="alpha" maskUnits="userSpaceOnUse" x="56" y="3" width="12" height="18">
<path d="M56.427 3.6145H67.2812V20.4226H56.427V3.6145Z" fill="white"/>
</mask>
<g mask="url(#mask1)">
<path fill-rule="evenodd" clip-rule="evenodd" d="M56.4398 16.3395C57.7297 17.1703 58.9929 17.6895 60.3873 17.796C61.0124 17.8438 61.6518 17.8282 62.2746 17.755C63.0486 17.6642 63.647 17.2506 63.8302 16.4555C64.0259 15.6045 63.9376 14.7658 63.1648 14.2183C62.6108 13.8259 61.9808 13.5352 61.3685 13.2319C60.5503 12.8268 59.6843 12.509 58.8955 12.0556C57.2504 11.1097 56.4394 9.68443 56.652 7.75114C56.8587 5.87301 57.9784 4.71228 59.6839 4.12462C61.9092 3.35798 64.1521 3.50062 66.3626 4.2512C66.5097 4.30086 66.7087 4.48998 66.7134 4.62015C66.7446 5.49413 66.7296 6.36959 66.7296 7.28732C66.1403 7.08361 65.6234 6.86723 65.0865 6.72713C63.919 6.422 62.7348 6.30261 61.5354 6.55301C60.6842 6.7303 60.1579 7.18716 60.0501 7.85342C59.9182 8.66908 60.1653 9.24554 60.9938 9.67175C61.9299 10.1538 62.9199 10.5293 63.8769 10.9713C65.1311 11.5507 66.2521 12.2933 66.8281 13.6252C68.138 16.6543 66.5137 19.6539 63.1693 20.2472C61.0534 20.6227 58.9631 20.3907 56.9468 19.5945C56.563 19.4432 56.4079 19.2437 56.4289 18.8171C56.4673 18.0325 56.4398 17.2443 56.4398 16.3395Z" fill="white"/>
</g>
<path fill-rule="evenodd" clip-rule="evenodd" d="M83.6296 7.27641H78.3003V19.9464H74.7655V7.29987C74.524 7.28803 74.3384 7.27113 74.1529 7.27092C72.6568 7.26859 71.1605 7.26014 69.6647 7.2762C69.3063 7.28021 69.1617 7.18407 69.1708 6.80434C69.1926 5.89422 69.1778 4.98305 69.1778 4.04187H83.6296V7.27641Z" fill="white"/>
<path fill-rule="evenodd" clip-rule="evenodd" d="M15.1602 19.9462H18.6156V4.03491H15.1602V19.9462Z" fill="white"/>
<path fill-rule="evenodd" clip-rule="evenodd" d="M110.385 14.603C110.385 13.6778 108.836 12.1291 107.911 12.1291C108.836 12.1291 110.385 10.5804 110.385 9.65515C110.385 10.5804 111.933 12.1291 112.859 12.1291C111.933 12.1291 110.385 13.6778 110.385 14.603Z" fill="white"/>
</svg>
