<svg width="20" height="20" viewBox="0 0 20 20" fill="none" xmlns="http://www.w3.org/2000/svg">
<path fill-rule="evenodd" clip-rule="evenodd" d="M15.6813 4.31867C14.9231 3.56044 13.6937 3.56044 12.9355 4.31867L10.5674 6.68675C10.567 6.68721 10.5665 6.68766 10.5661 6.68812C10.0326 7.22561 10.0181 7.57634 10.0671 7.85887C10.1427 8.29426 10.4208 8.77982 10.8865 9.51804C10.9097 9.55488 10.9336 9.59263 10.9581 9.63126C11.3509 10.2515 11.8874 11.0985 12.0744 12.013C12.182 12.5392 12.1842 13.1135 11.9946 13.7077C11.807 14.2958 11.4554 14.8284 10.9675 15.3138C10.9671 15.3142 10.9667 15.3146 10.9663 15.315L8.83226 17.4491C7.09771 19.1836 4.28546 19.1836 2.55091 17.4491C0.816363 15.7145 0.816363 12.9023 2.55091 11.1677L3.98705 9.73161C4.47521 9.24345 5.26666 9.24345 5.75482 9.73161C6.24297 10.2198 6.24297 11.0112 5.75482 11.4994L4.31868 12.9355C3.56044 13.6937 3.56044 14.9231 4.31868 15.6813C5.07691 16.4396 6.30626 16.4396 7.0645 15.6813L9.20111 13.5447L9.20364 13.5422C9.46896 13.2784 9.57102 13.0791 9.61295 12.9477C9.6531 12.8219 9.66078 12.6883 9.62512 12.514C9.53724 12.0843 9.2485 11.6072 8.772 10.8518C8.76202 10.836 8.75194 10.82 8.74175 10.8039C8.33643 10.1618 7.77496 9.27227 7.60392 8.2861C7.4021 7.12251 7.74965 5.97582 8.79396 4.92472L8.79681 4.92185L11.1677 2.55091C12.9023 0.816368 15.7145 0.816361 17.4491 2.5509C19.1836 4.28545 19.1836 7.0977 17.4491 8.83225L15.6026 10.6787C15.1145 11.1669 14.323 11.1669 13.8349 10.6787C13.3467 10.1906 13.3467 9.39913 13.8349 8.91097L15.6813 7.06449C16.4395 6.30625 16.4396 5.07691 15.6813 4.31867Z" fill="#9A9A9A"/>
</svg>
