<svg width="20" height="20" viewBox="0 0 20 20" fill="none" xmlns="http://www.w3.org/2000/svg">
<path fill-rule="evenodd" clip-rule="evenodd" d="M14.7455 16.9243C15.2054 16.9516 15.5232 16.8352 15.7887 16.5697L17.114 15.2444L15.4947 13.625L14.4579 14.6414C14.0643 15.0272 13.4644 15.1097 12.9813 14.8445C12.0601 14.3387 10.6432 13.0807 9.43601 11.8659C8.81096 11.237 8.20301 10.5799 7.69669 9.97582C7.20805 9.3928 6.75496 8.79 6.49744 8.28341C6.25225 7.80106 6.34524 7.21571 6.72786 6.8331C7.00478 6.55618 7.344 6.23657 7.62487 5.97434C7.66441 5.93743 7.70224 5.90216 7.73827 5.86859L6.13752 4.26783L4.81215 5.59319C4.54365 5.86169 4.42712 6.18043 4.45242 6.63589C4.48023 7.13662 4.68475 7.77488 5.08285 8.52569C5.87762 10.0246 7.25341 11.6227 8.49562 12.8649C9.72979 14.099 11.3339 15.4811 12.8415 16.2835C13.597 16.6856 14.2404 16.8942 14.7455 16.9243ZM11.6669 18.4904C9.83459 17.5151 8.02415 15.9289 6.72786 14.6326C5.42435 13.3291 3.84258 11.5233 2.87413 9.69682C2.39062 8.78494 2.01212 7.78015 1.95626 6.77453C1.8979 5.72364 2.19706 4.67275 3.04439 3.82542L4.8073 2.06251C5.5017 1.36811 6.68445 1.27923 7.44692 2.0417L9.97867 4.57345C10.7411 5.33591 10.6523 6.51866 9.95786 7.21308C9.88334 7.2876 9.71677 7.44256 9.53026 7.61608C9.46523 7.67658 9.39777 7.73933 9.33095 7.80172C9.2978 7.83267 9.26419 7.86409 9.23031 7.89582C9.34153 8.04002 9.46902 8.1985 9.61273 8.36996C10.0642 8.90866 10.6224 9.51312 11.2093 10.1037C12.0259 10.9253 12.8305 11.6519 13.4432 12.1352L14.1744 11.4185C14.8695 10.7291 16.048 10.6428 16.8084 11.4032L19.3402 13.9349C20.1026 14.6974 20.0138 15.8802 19.3194 16.5746L17.5564 18.3375C16.7061 19.1879 15.6497 19.4825 14.5969 19.4198C13.5892 19.3598 12.5814 18.9772 11.6669 18.4904Z" fill="#9A9A9A"/>
</svg>
